<svg width="111" height="114" viewBox="0 0 111 114" fill="none" xmlns="http://www.w3.org/2000/svg">
<path d="M55.0406 12.5254C55.7679 12.5254 56.3605 11.9328 56.3605 11.2055V1.31988C56.3605 0.592597 55.7679 0 55.0406 0C54.3133 0 53.7207 0.592597 53.7207 1.31988V11.2055C53.7207 11.9328 54.3133 12.5254 55.0406 12.5254Z" fill="#010101"/>
<path d="M110.475 83.1519C110.475 81.4145 109.801 79.7803 108.576 78.5592L104.661 74.6535C103.435 73.4324 101.806 72.759 100.068 72.759C98.9729 72.759 97.8909 73.0328 96.9437 73.5536L96.3556 73.8768L87.8661 65.3964L88.8628 64.4042C91.507 61.7555 91.507 57.4547 88.8628 54.8149C87.9245 53.8766 86.7483 53.2391 85.4598 52.9743L84.5081 52.7767L84.7774 51.8429C84.957 51.2234 85.0468 50.5814 85.0468 49.9349C85.0468 48.1167 84.342 46.4153 83.0625 45.1403C82.1242 44.202 80.948 43.5645 79.6551 43.2996L78.7033 43.1021L78.9727 42.1683C79.1523 41.5488 79.242 40.9068 79.242 40.2603C79.242 38.4421 78.5372 36.7407 77.2577 35.4657C76.3239 34.5319 75.1477 33.8989 73.8548 33.6295L72.9075 33.432L73.1769 32.5027C73.8682 30.1143 73.2128 27.5464 71.4619 25.7911C70.0074 24.341 67.9917 23.6362 65.9355 23.8561L65.8053 23.8696L51.0577 21.0772C49.033 20.6956 46.5234 20.4263 45.0599 21.7596C44.9746 21.8359 44.8848 21.9302 44.7995 22.029L44.3955 22.5003L43.8119 22.2893C41.3292 21.387 38.5279 22.002 36.6693 23.8606C35.3898 25.1356 34.6894 26.8416 34.6894 28.6598C34.6894 29.3062 34.7792 29.9482 34.9588 30.5678L35.2282 31.5016L34.2764 31.6991C32.988 31.964 31.8117 32.6015 30.878 33.5352C29.594 34.8102 28.8892 36.5117 28.8892 38.3299C28.8892 38.9764 28.9789 39.6184 29.1585 40.2424L29.4279 41.1762L28.4761 41.3737C27.1877 41.6386 26.0115 42.2761 25.0732 43.2099C23.7937 44.4893 23.0889 46.1953 23.0889 48.009C23.0889 49.3917 23.4974 50.7161 24.2741 51.8429L24.9475 52.8216L23.8251 53.2032C22.8375 53.5399 21.962 54.0831 21.2213 54.8239C18.5771 57.4636 18.5771 61.7689 21.2213 64.4222L22.2134 65.4143L13.751 73.8588L13.1808 73.5895C10.7072 72.4222 7.74418 72.9385 5.81375 74.8645L1.89452 78.7702C0.673407 79.9779 0 81.612 0 83.3494C0 85.0868 0.673407 86.7209 1.89901 87.942L6.78794 92.8265C7.28626 93.3248 8.1572 93.3248 8.65103 92.8265C8.89795 92.5751 9.03712 92.2474 9.03712 91.8927C9.03712 91.538 8.89795 91.2103 8.65103 90.9589L3.7621 86.0745C3.03931 85.3517 2.63976 84.382 2.63976 83.3494C2.63976 82.3168 3.03931 81.3471 3.7621 80.6243L7.68133 76.7186C8.93387 75.4705 10.8688 75.2326 12.3907 76.1395L12.5658 76.2427L12.678 76.4133C12.7274 76.4851 12.7813 76.557 12.8441 76.6153C12.9519 76.7231 13.0776 76.8129 13.2212 76.8757L13.3649 76.9431L13.4771 77.0553L36.0587 99.601L36.126 99.7491C36.1934 99.8973 36.2832 100.023 36.3909 100.131C36.4942 100.234 36.6199 100.324 36.7635 100.391L36.9296 100.472L37.0508 100.611C37.6704 101.311 38.0116 102.218 38.0116 103.161C38.0116 104.194 37.612 105.163 36.8892 105.886L32.9745 109.796C31.4705 111.296 29.0194 111.296 27.5154 109.796L22.6265 104.907C22.3796 104.66 22.0473 104.521 21.6927 104.521C21.338 104.521 21.0103 104.656 20.7589 104.907C20.2426 105.424 20.2426 106.259 20.7589 106.77L25.6523 111.664C26.8734 112.881 28.5031 113.554 30.2405 113.554C31.9778 113.554 33.6075 112.881 34.8331 111.664L38.7478 107.754C39.9689 106.533 40.6468 104.903 40.6468 103.161C40.6468 101.931 40.3056 100.741 39.6592 99.7132L39.2776 99.1071L48.0902 90.3079C49.3473 89.0105 52.0768 89.1991 54.9635 89.3966C56.7368 89.5178 58.7346 89.6615 60.6381 89.4415L61.069 89.3921L70.9457 99.2553L70.6224 99.8479C70.1017 100.795 69.8278 101.873 69.8278 102.964C69.8278 104.701 70.5012 106.331 71.7268 107.552L75.6416 111.462C76.8627 112.683 78.4968 113.356 80.2342 113.356C81.9716 113.356 83.6012 112.683 84.8268 111.462L108.58 87.74C109.806 86.5189 110.479 84.8893 110.479 83.1474L110.475 83.1519ZM46.6581 23.6451L47.3315 23.4835C47.9915 23.3219 49.0824 23.3848 50.5729 23.6676L61.8547 25.8045L54.4472 33.2075L53.8726 32.9337C53.2036 32.6104 51.8344 31.8383 50.1913 30.267C48.2114 28.3725 46.8646 26.2714 46.6671 24.7765L46.6581 24.7495L46.6491 24.6014C46.6402 24.5161 46.6402 24.4173 46.6402 24.341L46.6536 23.6496L46.6581 23.6451ZM38.5323 25.7192C39.9375 24.3141 42.1553 24.1031 43.8074 25.2209L44.0947 25.4184L44.1755 25.7596C44.8444 28.5655 47.3315 31.1783 48.3686 32.1705C49.1183 32.8888 51.7625 35.2726 54.3439 35.9011L54.6717 35.982L54.8647 36.2603C55.3496 36.9562 55.6055 37.7777 55.6055 38.6307C55.6055 39.7441 55.1745 40.7856 54.3933 41.5667C53.6167 42.3479 52.5706 42.7744 51.4573 42.7744C50.3439 42.7744 49.2979 42.3434 48.5167 41.5623L38.5234 31.5869C37.7422 30.8102 37.3157 29.7687 37.3157 28.6553C37.3157 27.5419 37.7467 26.5004 38.5234 25.7237L38.5323 25.7192ZM32.741 35.3894C33.5222 34.6082 34.5637 34.1817 35.6726 34.1817C36.7815 34.1817 37.832 34.6127 38.6132 35.3938L46.6626 43.4253C48.2788 45.046 48.2833 47.6768 46.6671 49.293C45.8815 50.0741 44.8399 50.5051 43.7221 50.5051C42.6042 50.5051 41.5627 50.0786 40.7815 49.2975L32.7366 41.257C31.9554 40.4758 31.5244 39.4298 31.5244 38.3209C31.5244 37.212 31.9554 36.1705 32.741 35.3938V35.3894ZM26.9408 45.0595C27.7219 44.2828 28.7635 43.8518 29.8768 43.8518C30.9902 43.8518 32.0183 44.2738 32.7949 45.0415L38.9229 51.165C39.7041 51.9417 40.1351 52.9832 40.1351 54.0966C40.1351 55.21 39.7041 56.2515 38.9229 57.0282C38.1463 57.8048 37.1002 58.2358 35.9869 58.2358C34.8735 58.2358 33.8275 57.8093 33.0463 57.0282L26.9408 50.9316C26.1596 50.1504 25.7286 49.1089 25.7286 47.9955C25.7286 46.8822 26.1596 45.8406 26.9408 45.0595ZM23.0799 56.6735C23.8611 55.8924 24.9071 55.4614 26.0204 55.4614C27.1338 55.4614 28.1798 55.8924 28.961 56.6735L31.1832 58.8957C31.9644 59.6724 32.3954 60.7139 32.3954 61.8273C32.3954 62.9407 31.9644 63.9822 31.1787 64.7634C30.4021 65.5445 29.3605 65.971 28.2427 65.971C27.1248 65.971 26.0833 65.54 25.3021 64.7544L23.0844 62.5456C21.4682 60.9249 21.4637 58.2942 23.0844 56.678L23.0799 56.6735ZM64.023 88.6154L64.9613 88.0139C65.4372 87.7086 65.8772 87.3539 66.2677 86.9634L68.2386 84.9925C68.49 84.7456 68.6247 84.4134 68.6247 84.0587C68.6247 83.7086 68.49 83.3763 68.2386 83.1249C67.7402 82.6266 66.8738 82.6266 66.3755 83.1249L64.4046 85.0958C62.2408 87.2597 58.6403 87.0082 55.1565 86.7658C51.794 86.5324 48.3192 86.2899 46.2227 88.4404L37.4145 97.235L15.7308 75.5828L24.09 67.237L24.6916 67.6051C25.7511 68.2561 26.9767 68.5973 28.2337 68.5973C30.0519 68.5973 31.7579 67.8925 33.0329 66.6175C34.3168 65.338 35.0217 63.6365 35.0217 61.8183V60.9654L35.5245 60.907V60.8666H35.8836L36.3146 60.8172V60.8576C38.0071 60.7723 39.5739 60.0809 40.7681 58.8913C42.052 57.6118 42.7569 55.9103 42.7569 54.0921V53.2481L43.6323 53.1359H43.7221C45.5268 53.1359 47.2373 52.4355 48.5212 51.1561C49.8097 49.8676 50.51 48.1437 50.501 46.312V45.3962L51.5067 45.4052C53.3069 45.3917 54.9904 44.6914 56.2564 43.4253C57.5359 42.1459 58.2407 40.4444 58.2407 38.6262C58.2407 37.3692 57.8995 36.1436 57.2531 35.0886L56.8849 34.487L63.7178 27.6586C64.3014 27.0795 65.0331 26.6889 65.8412 26.5273C65.9535 26.5139 65.9939 26.5049 66.0388 26.4959C67.3856 26.3073 68.674 26.7293 69.5988 27.6542C71.215 29.2748 71.2195 31.9056 69.6033 33.5263L65.4327 37.6834C65.1858 37.9303 65.0466 38.2626 65.0466 38.6172C65.0466 38.9719 65.1813 39.2996 65.4327 39.551C65.9445 40.0628 66.784 40.0673 67.2958 39.551L69.527 37.3243C71.1477 35.7171 73.7785 35.7216 75.3946 37.3377C76.1758 38.1144 76.6068 39.1559 76.6068 40.2693C76.6068 41.3827 76.1758 42.4242 75.3901 43.2054L71.2285 47.3625C70.9771 47.6094 70.8424 47.9417 70.8379 48.2963C70.8379 48.6465 70.9726 48.9787 71.224 49.2301C71.7358 49.7464 72.5708 49.7464 73.0871 49.2301L75.3183 47.0079C76.095 46.2267 77.1365 45.8002 78.2544 45.8002C79.3722 45.8002 80.4138 46.2312 81.1949 47.0168C81.9761 47.7935 82.4026 48.835 82.4026 49.9439C82.4026 51.0528 81.9716 52.0988 81.1859 52.88L77.3206 56.7453C77.0737 56.9967 76.9345 57.3245 76.9345 57.6791C76.9345 58.0293 77.0737 58.3615 77.3206 58.6129C77.792 59.0843 78.7168 59.0843 79.1837 58.6129L81.1141 56.6825C81.8908 55.9058 82.9323 55.4748 84.0457 55.4748C85.159 55.4748 86.2051 55.9058 86.9862 56.687C88.6024 58.2987 88.6024 60.9294 86.9862 62.5501L81.9985 67.5333C81.4822 68.0451 81.4822 68.8846 81.9985 69.3964C82.232 69.6299 82.5642 69.7511 82.9323 69.7645C83.2915 69.7645 83.6282 69.6299 83.8616 69.3964L85.9941 67.2684L94.4341 75.6995L72.7549 97.3563L64.0186 88.6289L64.023 88.6154ZM106.713 85.8724L82.9592 109.594C82.2365 110.317 81.2668 110.717 80.2297 110.717C79.1927 110.717 78.2274 110.317 77.5002 109.594L73.5854 105.684C72.8626 104.961 72.4631 103.992 72.4631 102.959C72.4631 101.926 72.8626 100.961 73.5854 100.234L97.3387 76.5121C98.066 75.7893 99.0312 75.3897 100.068 75.3897C101.105 75.3897 102.071 75.7893 102.798 76.5166L106.713 80.4178C107.44 81.1406 107.835 82.1103 107.835 83.1429C107.835 84.1799 107.435 85.1452 106.713 85.8679V85.8724Z" fill="#010101"/>
<path d="M32.8054 16.9734C32.8054 16.6188 32.6662 16.291 32.4193 16.0441L24.3429 7.9857C24.096 7.73878 23.7638 7.59961 23.4136 7.59961C23.059 7.59961 22.7312 7.73878 22.4798 7.9857C22.2329 8.23261 22.0938 8.56483 22.0938 8.91949C22.0938 9.27415 22.2329 9.60187 22.4798 9.84879L30.5562 17.9072C31.0546 18.4011 31.9255 18.4011 32.4193 17.9072C32.6662 17.6603 32.8054 17.3281 32.8054 16.9734Z" fill="#010101"/>
<path d="M87.0809 10.366C87.3278 10.1191 87.4669 9.78684 87.4669 9.43218C87.4669 9.07752 87.3323 8.7498 87.0809 8.49839C86.8339 8.25148 86.5017 8.1123 86.1471 8.1123C85.7924 8.1123 85.4647 8.25148 85.2133 8.49839L77.1459 16.5568C76.8944 16.8037 76.7598 17.136 76.7598 17.4906C76.7598 17.8453 76.8944 18.173 77.1459 18.4244C77.6352 18.9138 78.5196 18.9138 79.0089 18.4244L87.0764 10.366H87.0809Z" fill="#010101"/>
<path d="M74.2953 78.4073C74.5018 78.4073 74.7039 78.3579 74.8924 78.2637C75.2067 78.1065 75.4401 77.8327 75.5524 77.5005C75.6646 77.1683 75.6377 76.8091 75.476 76.4949C75.3189 76.1806 75.0451 75.9472 74.7128 75.8349C74.5782 75.79 74.439 75.7676 74.2998 75.7676C74.0933 75.7676 73.8958 75.817 73.7072 75.9112C73.3885 76.0729 73.155 76.3422 73.0428 76.6789C72.9306 77.0111 72.9575 77.3703 73.1191 77.6845C73.3436 78.129 73.797 78.4073 74.2998 78.4073H74.2953Z" fill="#010101"/>
</svg>
