<svg width="118" height="102" viewBox="0 0 118 102" fill="none" xmlns="http://www.w3.org/2000/svg">
<path d="M115.705 17.2346C116.558 16.8171 117.11 15.9686 117.137 15.0168L117.496 2.62163C117.523 1.78661 117.137 0.996478 116.468 0.498157C115.799 0.00432492 114.933 -0.130356 114.142 0.130028L102.385 4.08517C101.482 4.39045 100.831 5.16262 100.683 6.10539C100.535 7.04367 100.917 7.98195 101.684 8.54762L103.925 10.2042L103.66 10.5633C101.967 12.8799 100.154 15.1739 98.2725 17.3782C97.8101 17.917 97.8775 18.7295 98.4162 19.1919C98.6766 19.4119 99.0088 19.5197 99.3545 19.4927C99.6957 19.4658 100.005 19.3042 100.23 19.0438C102.533 16.3457 104.728 13.5263 106.757 10.6666C107.161 10.1009 107.036 9.30183 106.475 8.88881L103.256 6.50495L114.928 2.58123L114.569 14.8866L112.055 13.0235C111.772 12.817 111.431 12.7317 111.09 12.7856C110.748 12.8395 110.439 13.028 110.241 13.3064C98.8113 29.3649 83.5114 42.6355 65.9939 51.6726C48.4584 60.7187 28.7635 65.4999 9.03712 65.4999H4.76324C3.5556 65.4999 2.57691 64.5212 2.57691 63.318C2.57691 62.1149 3.5556 61.1317 4.76324 61.1317H9.03712C25.2752 61.1317 41.0778 57.9039 56.005 51.5424C70.82 45.2348 84.0053 36.1663 95.1928 24.5882C95.4307 24.3413 95.5609 24.018 95.5564 23.6723C95.552 23.3267 95.4083 23.0079 95.1614 22.7655C94.6541 22.2761 93.837 22.2896 93.3432 22.8014C88.993 27.2998 84.2746 31.4614 79.3273 35.1651L79.2061 35.2549H65.1903C63.2194 35.2549 61.6167 36.8576 61.6167 38.824V46.1103L61.3653 46.236C59.7806 47.0216 58.1913 47.7668 56.6425 48.4582L56.0095 48.741V45.585C56.0095 43.6142 54.4068 42.0115 52.436 42.0115H38.5862C36.6199 42.0115 35.0172 43.6142 35.0172 45.585V55.6547L34.667 55.731C33.1137 56.0812 31.5199 56.4044 29.9397 56.6917L29.4099 56.786V51.0845C29.4099 49.1181 27.8072 47.5154 25.8409 47.5154H11.9911C10.0203 47.5154 8.41759 49.1181 8.41759 51.0845V58.5548H4.75875C2.13695 58.5548 0 60.6873 0 63.3136C0 65.9398 2.13246 68.0723 4.75875 68.0723H8.41759V86.9322H7.03486C3.24134 86.9322 0.157131 90.0164 0.157131 93.8099V98.5687C0.157131 99.9649 1.29295 101.101 2.68915 101.101H70.0209C70.7302 101.101 71.3048 100.522 71.3048 99.8077C71.3048 99.0939 70.7302 98.5238 70.0209 98.5238H2.72955V93.8099C2.72955 91.435 4.65998 89.5046 7.03486 89.5046H110.38C112.755 89.5046 114.686 91.435 114.686 93.8099V98.5238H90.6181C89.9088 98.5238 89.3342 99.0984 89.3342 99.8077C89.3342 100.517 89.9088 101.101 90.6181 101.101H114.731C116.127 101.101 117.263 99.9649 117.263 98.5687V93.8099C117.263 90.0164 114.174 86.9322 110.38 86.9322H109.2V31.017C109.2 29.0461 107.597 27.4434 105.626 27.4434H102.039L102.726 26.6937C105.77 23.3671 108.652 19.8474 111.296 16.2379L111.561 15.8743L113.07 16.9921C113.837 17.5578 114.843 17.6521 115.7 17.2346H115.705ZM64.1892 38.8375C64.1892 38.2898 64.6381 37.8408 65.1903 37.8408H75.6505L74.4249 38.6624C71.3452 40.7275 68.1263 42.6669 64.8536 44.4357L64.1936 44.7949V38.8375H64.1892ZM37.5941 45.594C37.5941 45.0418 38.043 44.5928 38.5907 44.5928H52.4404C52.9881 44.5928 53.4371 45.0418 53.4371 45.594V49.832L53.1587 49.9442C48.2788 51.933 43.2327 53.603 38.1552 54.9049L37.5941 55.0486V45.5895V45.594ZM10.999 51.098C10.999 50.5503 11.4479 50.1013 11.9956 50.1013H25.8409C26.3931 50.1013 26.842 50.5503 26.842 51.098V57.2215L26.4604 57.2798C21.549 58.0116 16.4985 58.4381 11.4569 58.5413L10.999 58.5503V51.098ZM35.0217 86.9457H29.4144V80.4854C29.4144 79.7761 28.8398 79.197 28.1305 79.197C27.4211 79.197 26.842 79.7761 26.842 80.4854V86.9457H10.999V68.0678L11.4389 68.0588C16.4222 67.9601 21.4323 67.565 26.3302 66.8871L26.842 66.8153V73.0824C26.842 73.7918 27.4211 74.3709 28.1305 74.3709C28.8398 74.3709 29.4144 73.7918 29.4144 73.0824V66.4202L29.7915 66.3574C31.2416 66.1194 32.777 65.8321 34.4829 65.4864L35.0217 65.3787V86.9457ZM53.4371 86.9457H37.5941V64.8085L37.9398 64.7277C42.9813 63.5425 47.9915 62.0431 52.831 60.2653L53.4326 60.0453V86.9457H53.4371ZM61.6167 86.9457H56.014V59.0486L56.2968 58.9364C57.8052 58.3303 59.3361 57.6794 60.9837 56.9431L61.6167 56.6603V86.9412V86.9457ZM88.2118 86.9457H82.6091V74.4607C82.6091 73.7514 82.0299 73.1767 81.3206 73.1767C80.6113 73.1767 80.0367 73.7514 80.0367 74.4607V86.9457H64.1892V55.4527L64.4451 55.3314C65.4372 54.8511 66.3306 54.4066 67.1701 53.9667C71.3138 51.8297 75.4081 49.4144 79.3408 46.7971L80.0367 46.3302V64.6289C80.0367 65.3383 80.6113 65.9129 81.3206 65.9129C82.0299 65.9129 82.6091 65.3383 82.6091 64.6289V44.5345L82.7976 44.3998C84.333 43.3044 85.9088 42.1192 87.4846 40.8756L88.2118 40.3055V86.9457ZM105.631 30.0158C106.183 30.0158 106.632 30.4648 106.632 31.017V86.9457H90.7842V38.1865L90.9414 38.0518C93.9133 35.5333 96.7776 32.8756 99.4577 30.1505L99.5879 30.0158H105.626H105.631Z" fill="#010101"/>
<path d="M80.5273 98.542C80.3926 98.4971 80.2534 98.4746 80.1143 98.4746C79.9078 98.4746 79.7102 98.524 79.5217 98.6183C79.2029 98.7799 78.9695 99.0492 78.8572 99.386C78.745 99.7182 78.7719 100.077 78.9336 100.392C79.158 100.836 79.6115 101.114 80.1143 101.114C80.3208 101.114 80.5228 101.065 80.7114 100.971C81.0256 100.814 81.2591 100.54 81.3668 100.208C81.4791 99.8708 81.4521 99.5161 81.2905 99.2019C81.1334 98.8876 80.8595 98.6542 80.5273 98.542Z" fill="#010101"/>
</svg>
