<svg width="109" height="106" viewBox="0 0 109 106" fill="none" xmlns="http://www.w3.org/2000/svg">
<path d="M106.982 90.1759H103.794V62.1083C103.794 61.4259 103.242 60.8737 102.56 60.8737C101.878 60.8737 101.325 61.4259 101.325 62.1083V90.1759H6.86877V33.3718C6.86877 30.732 9.01472 28.5861 11.659 28.5861H18.8015L28.2023 33.5648H13.0866C12.4042 33.5648 11.852 34.117 11.852 34.7994V83.9626C11.852 84.645 12.4042 85.1972 13.0866 85.1972H21.5131C22.1955 85.1972 22.7477 84.645 22.7477 83.9626C22.7477 83.2802 22.1955 82.728 21.5131 82.728H14.3211V36.034H29.3426V42.4134C29.3426 48.3259 32.8488 53.6054 38.272 55.8591C43.2776 57.9422 48.6065 58.9972 54.106 58.9972C58.1554 58.9972 62.169 58.4091 66.0208 57.2553L66.6 57.0802V59.4955L63.3003 65.2105C62.4877 66.6112 62.4877 68.2902 63.3003 69.6909C64.1128 71.0916 65.5629 71.9311 67.1836 71.9311H68.4855C70.1062 71.9311 71.5563 71.0916 72.3688 69.6909C73.1769 68.2902 73.1769 66.6112 72.3688 65.2105L69.0736 59.5V56.2003L69.3565 56.0881C69.4418 56.0521 69.5315 56.0207 69.6168 55.9893C69.7246 55.9489 69.8368 55.9085 69.9446 55.8636C75.3677 53.6099 78.8694 48.3304 78.8694 42.4179V36.0385H93.8909V82.7325H27.906C27.2236 82.7325 26.6714 83.2847 26.6714 83.9671C26.6714 84.6495 27.2236 85.2017 27.906 85.2017H95.1255C95.8079 85.2017 96.36 84.6495 96.36 83.9671V34.7994C96.36 34.117 95.8079 33.5648 95.1255 33.5648H80.0098L89.4105 28.5861H96.5531C99.1929 28.5861 101.339 30.732 101.339 33.3718V53.5471C101.339 54.2295 101.891 54.7817 102.573 54.7817C103.256 54.7817 103.808 54.2295 103.808 53.5471V33.3718C103.808 29.3718 100.553 26.117 96.5531 26.117H92.2478L92.5351 25.484C92.8987 24.6849 93.0783 23.8319 93.0783 22.9609C93.0783 20.6893 91.8303 18.6152 89.8235 17.5512L68.9524 6.49838C68.3508 6.17963 67.6011 6.40859 67.2823 7.01017C66.9636 7.61174 67.1926 8.36147 67.7941 8.68022L88.6652 19.7331C89.8819 20.3795 90.6092 21.5827 90.6092 22.9609C90.6092 24.3392 89.8819 25.5423 88.6697 26.1888L68.1308 37.071L55.0443 22.1484C54.8288 21.9014 54.528 21.7533 54.1958 21.7308C53.8681 21.7129 53.5494 21.8161 53.3024 22.0361C52.7907 22.4851 52.7413 23.2662 53.1902 23.778L65.8906 38.2607L57.8097 42.5436C55.4977 43.7647 52.7368 43.7647 50.4292 42.5436L19.5648 26.1933C18.3481 25.5468 17.6208 24.3437 17.6208 22.9654C17.6208 21.5872 18.3481 20.384 19.5648 19.7376L50.4292 3.38724C52.7413 2.16164 55.4977 2.16164 57.8097 3.38724L62.2273 5.7262C62.5191 5.87884 62.8513 5.91027 63.1701 5.81599C63.4844 5.71722 63.7447 5.50622 63.8974 5.21441C64.05 4.9226 64.0859 4.59039 63.9871 4.27164C63.8884 3.95739 63.6774 3.697 63.3856 3.54436L58.968 1.2054C55.9332 -0.401799 52.3103 -0.401799 49.2754 1.2054L18.4109 17.5557C16.4042 18.6197 15.1561 20.6938 15.1561 22.9654C15.1561 23.8408 15.3403 24.6893 15.6994 25.4885L15.9867 26.1215H11.6814C7.68134 26.1215 4.42208 29.3763 4.42208 33.3763V90.1804H1.23458C0.552194 90.1804 0 90.7326 0 91.415V95.8505C0 101.359 4.4804 105.839 9.98887 105.839H72.939C73.6214 105.839 74.1736 105.287 74.1736 104.605C74.1736 103.922 73.6214 103.37 72.939 103.37H9.98887C5.84068 103.37 2.46916 99.9987 2.46916 95.8505V92.6496H41.2484L41.3203 93.0132C41.9892 96.3668 44.9611 98.8 48.3776 98.8H59.8479C63.2689 98.8 66.2363 96.3668 66.9052 93.0132L66.9771 92.6541H105.756V95.855C105.756 100.003 102.385 103.375 98.2366 103.375H87.5744C86.892 103.375 86.3398 103.927 86.3398 104.609C86.3398 105.292 86.892 105.844 87.5744 105.844H98.2366C103.745 105.844 108.226 101.363 108.226 95.855V91.4195C108.226 90.7371 107.673 90.1849 106.991 90.1849L106.982 90.1759ZM69.0647 39.3606L76.3913 35.4773V42.4179C76.3913 42.997 76.3509 43.5717 76.2746 44.1328C75.7269 48.0611 73.3206 51.464 69.7156 53.2508L69.0691 53.574V39.3651L69.0647 39.3606ZM70.2229 66.4496C70.7482 67.3564 70.398 68.16 70.2229 68.4608C70.1152 68.6493 69.8682 68.995 69.4462 69.2285C69.1903 69.3676 68.8716 69.4664 68.481 69.4664H67.1791C66.1331 69.4664 65.6123 68.7616 65.4372 68.4608C65.3923 68.3845 65.3385 68.2767 65.2891 68.1465C65.1409 67.7515 65.0421 67.1274 65.4372 66.4496L67.8301 62.3014L70.2229 66.4496ZM31.8073 35.4818L49.253 44.7254C50.7435 45.5111 52.418 45.9286 54.097 45.9286C55.7805 45.9286 57.4551 45.5111 58.9456 44.7254L66.5955 40.676V54.4809L66.2857 54.5841C62.3036 55.895 58.1779 56.5505 54.0611 56.5505C48.9971 56.5505 43.9466 55.5628 39.2148 53.5965C34.7164 51.7244 31.8073 47.3428 31.8073 42.4314V35.4908V35.4818ZM64.2655 93.2556C63.5741 95.0918 61.7963 96.3264 59.8345 96.3264H48.3641C46.4068 96.3264 44.6245 95.0918 43.9331 93.2556L43.7042 92.6496H64.4899L64.261 93.2556H64.2655Z" fill="black"/>
<path d="M21.0373 77.7485H52.9882C53.6706 77.7485 54.2228 77.1963 54.2228 76.5139C54.2228 75.8315 53.6706 75.2793 52.9882 75.2793H21.0373C20.3549 75.2793 19.8027 75.8315 19.8027 76.5139C19.8027 77.1963 20.3549 77.7485 21.0373 77.7485Z" fill="black"/>
<path d="M21.0373 71.0336H42.4023C43.0846 71.0336 43.6368 70.4814 43.6368 69.799C43.6368 69.1166 43.0846 68.5645 42.4023 68.5645H21.0373C20.3549 68.5645 19.8027 69.1166 19.8027 69.799C19.8027 70.4814 20.3549 71.0336 21.0373 71.0336Z" fill="black"/>
<path d="M80.5937 103.348C80.459 103.303 80.3199 103.28 80.1807 103.28C79.9742 103.28 79.7767 103.33 79.5881 103.424C78.9371 103.752 78.6723 104.546 79 105.197C79.2245 105.642 79.6779 105.92 80.1807 105.92C80.3872 105.92 80.5893 105.871 80.7778 105.776C81.0921 105.619 81.3255 105.345 81.4332 105.013C81.5455 104.681 81.5186 104.322 81.357 104.008C81.1998 103.693 80.9259 103.46 80.5937 103.348Z" fill="#010101"/>
</svg>
