<svg width="22" height="14" viewBox="0 0 22 14" fill="none" xmlns="http://www.w3.org/2000/svg">
<path d="M13.8041 12.8334C13.8041 12.4834 13.9208 12.2501 14.1541 12.0167L19.9875 6.18338C20.4541 5.71671 21.1541 5.71671 21.6208 6.18338C22.0875 6.65005 22.0875 7.35005 21.6208 7.81672L15.7874 13.6501C15.3208 14.1168 14.6208 14.1168 14.1541 13.6501C13.9208 13.4167 13.8041 13.1834 13.8041 12.8334Z" fill="black"/>
<path d="M13.8041 1.16667C13.8041 0.81667 13.9208 0.583336 14.1541 0.350002C14.6208 -0.116667 15.3208 -0.116667 15.7874 0.350002L21.6208 6.18338C22.0875 6.65005 22.0875 7.35005 21.6208 7.81672C21.1541 8.28339 20.4541 8.28338 19.9875 7.81671L14.1541 1.98334C13.9208 1.75001 13.8041 1.51667 13.8041 1.16667Z" fill="black"/>
<path d="M0.970703 7.00005C0.970703 6.30004 1.43737 5.83337 2.13738 5.83337L20.8041 5.83337C21.5041 5.83337 21.9708 6.30004 21.9708 7.00005C21.9708 7.70005 21.5041 8.16672 20.8041 8.16672L2.13738 8.16672C1.43737 8.16672 0.970703 7.70005 0.970703 7.00005Z" fill="black"/>
</svg>
