<svg width="424" height="474" viewBox="0 0 424 474" fill="none" xmlns="http://www.w3.org/2000/svg">
<g clip-path="url(#clip0_205_140)">
<rect width="424" height="474" rx="20" fill="#EAEAEA"/>
<path d="M59.615 49.32C62.065 49.32 64.1183 49.6233 65.775 50.23C67.4317 50.8367 68.75 51.665 69.73 52.715C70.71 53.7417 71.41 54.9317 71.83 56.285C72.2733 57.6383 72.495 59.0617 72.495 60.555C72.495 62.0717 72.2617 63.5183 71.795 64.895C71.3283 66.2717 70.5817 67.4967 69.555 68.57C68.5517 69.62 67.2333 70.46 65.6 71.09C63.9667 71.6967 61.9717 72 59.615 72H48.73V49.32H59.615ZM52.72 68.5H59.58C61.3067 68.5 62.7417 68.2783 63.885 67.835C65.0283 67.3917 65.9383 66.7967 66.615 66.05C67.2917 65.28 67.77 64.4283 68.05 63.495C68.33 62.5383 68.47 61.5583 68.47 60.555C68.47 59.5517 68.33 58.595 68.05 57.685C67.77 56.7517 67.2917 55.9233 66.615 55.2C65.9383 54.4533 65.0283 53.87 63.885 53.45C62.7417 53.0067 61.3067 52.785 59.58 52.785H52.72V68.5ZM80.9866 47.185V50.93H76.3316V47.185H80.9866ZM76.6816 54.57H80.6016V72H76.6816V54.57ZM93.025 69.305C91.3916 69.305 89.91 69.0133 88.58 68.43C87.2733 67.8467 86.235 66.995 85.465 65.875C84.7183 64.755 84.345 63.4133 84.345 61.85C84.345 60.2867 84.7066 58.9333 85.43 57.79C86.1766 56.6467 87.2033 55.76 88.51 55.13C89.84 54.5 91.345 54.185 93.025 54.185C93.515 54.185 93.9816 54.22 94.425 54.29C94.8916 54.36 95.335 54.4533 95.755 54.57L103.91 54.605V57.86C102.79 57.8833 101.658 57.7317 100.515 57.405C99.395 57.055 98.4033 56.6933 97.54 56.32L97.435 56.11C98.2283 56.5067 98.94 56.9967 99.57 57.58C100.223 58.14 100.737 58.7817 101.11 59.505C101.483 60.2283 101.67 61.045 101.67 61.955C101.67 63.495 101.297 64.8133 100.55 65.91C99.8266 67.0067 98.8116 67.8467 97.505 68.43C96.2216 69.0133 94.7283 69.305 93.025 69.305ZM98.625 79.105V78.3C98.625 77.1567 98.2866 76.3517 97.61 75.885C96.9333 75.4183 95.9883 75.185 94.775 75.185H90.05C89.1166 75.185 88.3116 75.1033 87.635 74.94C86.9816 74.8 86.4566 74.5783 86.06 74.275C85.6633 73.995 85.3716 73.6567 85.185 73.26C84.9983 72.8867 84.905 72.4667 84.905 72C84.905 71.0667 85.185 70.3667 85.745 69.9C86.3283 69.4333 87.0866 69.13 88.02 68.99C88.9766 68.85 89.98 68.8267 91.03 68.92L93.025 69.305C91.6483 69.3517 90.5983 69.48 89.875 69.69C89.175 69.8767 88.825 70.2617 88.825 70.845C88.825 71.195 88.965 71.475 89.245 71.685C89.525 71.895 89.9216 72 90.435 72H95.405C96.8283 72 98.0766 72.1633 99.15 72.49C100.223 72.84 101.052 73.4117 101.635 74.205C102.242 75.0217 102.545 76.13 102.545 77.53V79.105H98.625ZM93.025 66.26C93.9583 66.26 94.7866 66.085 95.51 65.735C96.2333 65.385 96.805 64.8833 97.225 64.23C97.645 63.5767 97.855 62.7833 97.855 61.85C97.855 60.9167 97.645 60.1117 97.225 59.435C96.805 58.7583 96.2333 58.245 95.51 57.895C94.7866 57.545 93.9583 57.37 93.025 57.37C92.115 57.37 91.2866 57.545 90.54 57.895C89.8166 58.245 89.245 58.7583 88.825 59.435C88.405 60.0883 88.195 60.8933 88.195 61.85C88.195 62.7833 88.405 63.5767 88.825 64.23C89.245 64.8833 89.8166 65.385 90.54 65.735C91.2633 66.085 92.0916 66.26 93.025 66.26ZM111.577 47.185V50.93H106.922V47.185H111.577ZM107.272 54.57H111.192V72H107.272V54.57ZM114.621 54.57H126.941V57.755H114.621V54.57ZM118.821 49.88H122.741V72H118.821V49.88ZM137.493 72.385C135.906 72.385 134.448 72 133.118 71.23C131.811 70.46 130.761 69.3983 129.968 68.045C129.198 66.6683 128.813 65.0933 128.813 63.32C128.813 61.5 129.209 59.9133 130.003 58.56C130.796 57.1833 131.869 56.11 133.223 55.34C134.576 54.57 136.093 54.185 137.773 54.185C139.639 54.185 141.121 54.5933 142.218 55.41C143.314 56.2267 144.096 57.3233 144.563 58.7C145.029 60.0767 145.263 61.6167 145.263 63.32C145.263 64.2767 145.123 65.2917 144.843 66.365C144.563 67.415 144.119 68.395 143.513 69.305C142.929 70.215 142.136 70.9617 141.133 71.545C140.153 72.105 138.939 72.385 137.493 72.385ZM138.683 69.165C139.989 69.165 141.098 68.92 142.008 68.43C142.941 67.9167 143.641 67.2167 144.108 66.33C144.598 65.4433 144.843 64.44 144.843 63.32C144.843 62.0833 144.598 61.0333 144.108 60.17C143.618 59.2833 142.918 58.6067 142.008 58.14C141.098 57.65 139.989 57.405 138.683 57.405C136.816 57.405 135.369 57.9533 134.343 59.05C133.316 60.1467 132.803 61.57 132.803 63.32C132.803 64.4633 133.048 65.4783 133.538 66.365C134.051 67.2517 134.751 67.94 135.638 68.43C136.524 68.92 137.539 69.165 138.683 69.165ZM144.843 54.57H148.763V72H145.123C145.123 72 145.099 71.7783 145.053 71.335C145.006 70.8917 144.959 70.355 144.913 69.725C144.866 69.0717 144.843 68.4533 144.843 67.87V54.57ZM153.383 47.57H157.268V72H153.383V47.57ZM173.765 66.68V63.285H187.275V66.68H173.765ZM168.515 72L178.42 49.32H182.69L192.665 72H188.36L179.68 51.525H181.43L172.785 72H168.515ZM203.118 69.305C201.484 69.305 200.003 69.0133 198.673 68.43C197.366 67.8467 196.328 66.995 195.558 65.875C194.811 64.755 194.438 63.4133 194.438 61.85C194.438 60.2867 194.799 58.9333 195.523 57.79C196.269 56.6467 197.296 55.76 198.603 55.13C199.933 54.5 201.438 54.185 203.118 54.185C203.608 54.185 204.074 54.22 204.518 54.29C204.984 54.36 205.428 54.4533 205.848 54.57L214.003 54.605V57.86C212.883 57.8833 211.751 57.7317 210.608 57.405C209.488 57.055 208.496 56.6933 207.633 56.32L207.528 56.11C208.321 56.5067 209.033 56.9967 209.663 57.58C210.316 58.14 210.829 58.7817 211.203 59.505C211.576 60.2283 211.763 61.045 211.763 61.955C211.763 63.495 211.389 64.8133 210.643 65.91C209.919 67.0067 208.904 67.8467 207.598 68.43C206.314 69.0133 204.821 69.305 203.118 69.305ZM208.718 79.105V78.3C208.718 77.1567 208.379 76.3517 207.703 75.885C207.026 75.4183 206.081 75.185 204.868 75.185H200.143C199.209 75.185 198.404 75.1033 197.728 74.94C197.074 74.8 196.549 74.5783 196.153 74.275C195.756 73.995 195.464 73.6567 195.278 73.26C195.091 72.8867 194.998 72.4667 194.998 72C194.998 71.0667 195.278 70.3667 195.838 69.9C196.421 69.4333 197.179 69.13 198.113 68.99C199.069 68.85 200.073 68.8267 201.123 68.92L203.118 69.305C201.741 69.3517 200.691 69.48 199.968 69.69C199.268 69.8767 198.918 70.2617 198.918 70.845C198.918 71.195 199.058 71.475 199.338 71.685C199.618 71.895 200.014 72 200.528 72H205.498C206.921 72 208.169 72.1633 209.243 72.49C210.316 72.84 211.144 73.4117 211.728 74.205C212.334 75.0217 212.638 76.13 212.638 77.53V79.105H208.718ZM203.118 66.26C204.051 66.26 204.879 66.085 205.603 65.735C206.326 65.385 206.898 64.8833 207.318 64.23C207.738 63.5767 207.948 62.7833 207.948 61.85C207.948 60.9167 207.738 60.1117 207.318 59.435C206.898 58.7583 206.326 58.245 205.603 57.895C204.879 57.545 204.051 57.37 203.118 57.37C202.208 57.37 201.379 57.545 200.633 57.895C199.909 58.245 199.338 58.7583 198.918 59.435C198.498 60.0883 198.288 60.8933 198.288 61.85C198.288 62.7833 198.498 63.5767 198.918 64.23C199.338 64.8833 199.909 65.385 200.633 65.735C201.356 66.085 202.184 66.26 203.118 66.26ZM231.475 66.26H235.22C235.033 67.45 234.567 68.5117 233.82 69.445C233.097 70.355 232.105 71.0783 230.845 71.615C229.585 72.1283 228.08 72.385 226.33 72.385C224.347 72.385 222.573 72.0233 221.01 71.3C219.447 70.5533 218.222 69.5033 217.335 68.15C216.448 66.7967 216.005 65.1867 216.005 63.32C216.005 61.4767 216.437 59.8667 217.3 58.49C218.163 57.1133 219.353 56.0517 220.87 55.305C222.41 54.5583 224.183 54.185 226.19 54.185C228.267 54.185 229.993 54.5583 231.37 55.305C232.77 56.0283 233.808 57.125 234.485 58.595C235.162 60.0417 235.442 61.8733 235.325 64.09H219.96C220.077 65.07 220.392 65.9567 220.905 66.75C221.442 67.52 222.165 68.1267 223.075 68.57C223.985 68.99 225.047 69.2 226.26 69.2C227.613 69.2 228.745 68.9317 229.655 68.395C230.588 67.8583 231.195 67.1467 231.475 66.26ZM226.085 57.335C224.498 57.335 223.192 57.7317 222.165 58.525C221.138 59.295 220.473 60.2867 220.17 61.5H231.405C231.312 60.1933 230.787 59.1783 229.83 58.455C228.873 57.7083 227.625 57.335 226.085 57.335ZM238.79 54.57H242.675V72H238.79V54.57ZM250.025 54.185C251.028 54.185 251.95 54.325 252.79 54.605C253.653 54.885 254.388 55.3167 254.995 55.9C255.625 56.46 256.103 57.16 256.43 58C256.78 58.84 256.955 59.8317 256.955 60.975V72H253.07V61.745C253.07 60.3217 252.72 59.2717 252.02 58.595C251.343 57.895 250.27 57.545 248.8 57.545C247.68 57.545 246.653 57.79 245.72 58.28C244.81 58.7467 244.063 59.365 243.48 60.135C242.897 60.8817 242.558 61.71 242.465 62.62L242.43 60.73C242.547 59.8667 242.803 59.05 243.2 58.28C243.597 57.4867 244.122 56.7867 244.775 56.18C245.428 55.55 246.198 55.06 247.085 54.71C247.972 54.36 248.952 54.185 250.025 54.185ZM280.006 65.245C279.866 66.7383 279.388 68.0217 278.571 69.095C277.755 70.1683 276.658 70.985 275.281 71.545C273.928 72.105 272.365 72.385 270.591 72.385C268.678 72.385 266.94 72.035 265.376 71.335C263.836 70.635 262.611 69.6083 261.701 68.255C260.791 66.9017 260.336 65.2567 260.336 63.32C260.336 61.3833 260.791 59.7383 261.701 58.385C262.611 57.0317 263.836 55.9933 265.376 55.27C266.94 54.5467 268.678 54.185 270.591 54.185C272.365 54.185 273.928 54.4767 275.281 55.06C276.635 55.62 277.72 56.425 278.536 57.475C279.353 58.525 279.831 59.7967 279.971 61.29H276.401C276.005 60.0533 275.281 59.0967 274.231 58.42C273.205 57.72 271.991 57.37 270.591 57.37C269.448 57.37 268.398 57.6033 267.441 58.07C266.485 58.5133 265.715 59.1783 265.131 60.065C264.571 60.9283 264.291 62.0133 264.291 63.32C264.291 64.6033 264.571 65.6883 265.131 66.575C265.715 67.4617 266.485 68.1267 267.441 68.57C268.398 68.99 269.448 69.2 270.591 69.2C272.131 69.2 273.391 68.8617 274.371 68.185C275.375 67.485 276.063 66.505 276.436 65.245H280.006ZM281.854 54.57H286.019L293.054 71.3L289.694 72L281.854 54.57ZM301.279 54.57L290.079 79H285.984L290.779 69.445L297.114 54.57H301.279ZM72.635 106.055C72.4017 107.805 71.7833 109.31 70.78 110.57C69.7767 111.807 68.435 112.763 66.755 113.44C65.0983 114.093 63.1617 114.42 60.945 114.42C59.0317 114.42 57.27 114.163 55.66 113.65C54.0733 113.137 52.685 112.39 51.495 111.41C50.3283 110.407 49.4183 109.182 48.765 107.735C48.135 106.265 47.82 104.585 47.82 102.695C47.82 100.782 48.135 99.1017 48.765 97.655C49.4183 96.2083 50.3283 94.9833 51.495 93.98C52.685 92.9533 54.0733 92.1833 55.66 91.67C57.27 91.1567 59.0317 90.9 60.945 90.9C63.185 90.9 65.1333 91.2383 66.79 91.915C68.47 92.5917 69.8117 93.56 70.815 94.82C71.8183 96.08 72.425 97.5967 72.635 99.37H68.785C68.4583 98.32 67.945 97.4333 67.245 96.71C66.545 95.9633 65.6583 95.3917 64.585 94.995C63.535 94.5983 62.3217 94.4 60.945 94.4C59.2183 94.4 57.6667 94.7267 56.29 95.38C54.9133 96.01 53.8283 96.9433 53.035 98.18C52.265 99.3933 51.88 100.898 51.88 102.695C51.88 104.468 52.265 105.973 53.035 107.21C53.8283 108.423 54.9133 109.345 56.29 109.975C57.6667 110.605 59.2183 110.92 60.945 110.92C62.3217 110.92 63.535 110.733 64.585 110.36C65.635 109.963 66.51 109.403 67.21 108.68C67.91 107.933 68.4233 107.058 68.75 106.055H72.635ZM85.9167 114.385C83.98 114.385 82.2417 114.035 80.7017 113.335C79.1617 112.635 77.9483 111.608 77.0617 110.255C76.175 108.902 75.7317 107.257 75.7317 105.32C75.7317 103.407 76.175 101.773 77.0617 100.42C77.9483 99.0433 79.1617 97.9933 80.7017 97.27C82.2417 96.5467 83.98 96.185 85.9167 96.185C87.8533 96.185 89.58 96.5467 91.0967 97.27C92.6133 97.9933 93.8033 99.0433 94.6667 100.42C95.5533 101.773 95.9967 103.407 95.9967 105.32C95.9967 107.257 95.5533 108.902 94.6667 110.255C93.8033 111.608 92.6133 112.635 91.0967 113.335C89.58 114.035 87.8533 114.385 85.9167 114.385ZM85.9167 111.2C87.0367 111.2 88.0633 110.978 88.9967 110.535C89.93 110.092 90.665 109.427 91.2017 108.54C91.7617 107.653 92.0417 106.58 92.0417 105.32C92.0417 104.06 91.7617 102.987 91.2017 102.1C90.665 101.213 89.93 100.537 88.9967 100.07C88.0867 99.58 87.06 99.335 85.9167 99.335C84.7733 99.335 83.735 99.5683 82.8017 100.035C81.8683 100.502 81.11 101.178 80.5267 102.065C79.9667 102.952 79.6867 104.037 79.6867 105.32C79.6867 106.58 79.9667 107.653 80.5267 108.54C81.0867 109.427 81.8333 110.092 82.7667 110.535C83.7233 110.978 84.7733 111.2 85.9167 111.2ZM107.244 114.385C105.657 114.385 104.199 114 102.869 113.23C101.562 112.46 100.512 111.398 99.7187 110.045C98.9487 108.668 98.5637 107.093 98.5637 105.32C98.5637 103.5 98.9604 101.913 99.7537 100.56C100.547 99.1833 101.62 98.11 102.974 97.34C104.327 96.57 105.844 96.185 107.524 96.185C109.39 96.185 110.872 96.5933 111.969 97.41C113.065 98.2267 113.847 99.3233 114.314 100.7C114.78 102.077 115.014 103.617 115.014 105.32C115.014 106.277 114.874 107.292 114.594 108.365C114.314 109.415 113.87 110.395 113.264 111.305C112.68 112.215 111.887 112.962 110.884 113.545C109.904 114.105 108.69 114.385 107.244 114.385ZM108.434 111.165C109.74 111.165 110.849 110.92 111.759 110.43C112.692 109.917 113.392 109.217 113.859 108.33C114.349 107.443 114.594 106.44 114.594 105.32C114.594 104.083 114.349 103.033 113.859 102.17C113.369 101.283 112.669 100.607 111.759 100.14C110.849 99.65 109.74 99.405 108.434 99.405C106.567 99.405 105.12 99.9533 104.094 101.05C103.067 102.147 102.554 103.57 102.554 105.32C102.554 106.463 102.799 107.478 103.289 108.365C103.802 109.252 104.502 109.94 105.389 110.43C106.275 110.92 107.29 111.165 108.434 111.165ZM114.594 96.57H118.514V114H114.874C114.874 114 114.85 113.778 114.804 113.335C114.757 112.892 114.71 112.355 114.664 111.725C114.617 111.072 114.594 110.453 114.594 109.87V96.57ZM141.544 107.245C141.404 108.738 140.926 110.022 140.109 111.095C139.293 112.168 138.196 112.985 136.819 113.545C135.466 114.105 133.903 114.385 132.129 114.385C130.216 114.385 128.478 114.035 126.914 113.335C125.374 112.635 124.149 111.608 123.239 110.255C122.329 108.902 121.874 107.257 121.874 105.32C121.874 103.383 122.329 101.738 123.239 100.385C124.149 99.0317 125.374 97.9933 126.914 97.27C128.478 96.5467 130.216 96.185 132.129 96.185C133.903 96.185 135.466 96.4767 136.819 97.06C138.173 97.62 139.258 98.425 140.074 99.475C140.891 100.525 141.369 101.797 141.509 103.29H137.939C137.543 102.053 136.819 101.097 135.769 100.42C134.743 99.72 133.529 99.37 132.129 99.37C130.986 99.37 129.936 99.6033 128.979 100.07C128.023 100.513 127.253 101.178 126.669 102.065C126.109 102.928 125.829 104.013 125.829 105.32C125.829 106.603 126.109 107.688 126.669 108.575C127.253 109.462 128.023 110.127 128.979 110.57C129.936 110.99 130.986 111.2 132.129 111.2C133.669 111.2 134.929 110.862 135.909 110.185C136.913 109.485 137.601 108.505 137.974 107.245H141.544ZM159.597 114V103.92C159.597 102.987 159.434 102.217 159.107 101.61C158.804 100.98 158.325 100.502 157.672 100.175C157.019 99.8483 156.155 99.685 155.082 99.685C154.009 99.685 153.029 99.9183 152.142 100.385C151.255 100.828 150.532 101.423 149.972 102.17C149.412 102.917 149.085 103.745 148.992 104.655L148.957 102.695C149.074 101.855 149.33 101.05 149.727 100.28C150.124 99.4867 150.649 98.7867 151.302 98.18C151.955 97.5733 152.725 97.095 153.612 96.745C154.499 96.3717 155.479 96.185 156.552 96.185C157.555 96.185 158.477 96.325 159.317 96.605C160.18 96.885 160.915 97.305 161.522 97.865C162.152 98.4017 162.63 99.0783 162.957 99.895C163.307 100.688 163.482 101.61 163.482 102.66V114H159.597ZM145.317 114V89.57H149.202V114H145.317ZM172.349 89.185V92.93H167.694V89.185H172.349ZM168.044 96.57H171.964V114H168.044V96.57ZM176.617 96.57H180.502V114H176.617V96.57ZM187.852 96.185C188.856 96.185 189.777 96.325 190.617 96.605C191.481 96.885 192.216 97.3167 192.822 97.9C193.452 98.46 193.931 99.16 194.257 100C194.607 100.84 194.782 101.832 194.782 102.975V114H190.897V103.745C190.897 102.322 190.547 101.272 189.847 100.595C189.171 99.895 188.097 99.545 186.627 99.545C185.507 99.545 184.481 99.79 183.547 100.28C182.637 100.747 181.891 101.365 181.307 102.135C180.724 102.882 180.386 103.71 180.292 104.62L180.257 102.73C180.374 101.867 180.631 101.05 181.027 100.28C181.424 99.4867 181.949 98.7867 182.602 98.18C183.256 97.55 184.026 97.06 184.912 96.71C185.799 96.36 186.779 96.185 187.852 96.185ZM206.843 111.305C205.21 111.305 203.728 111.013 202.398 110.43C201.092 109.847 200.053 108.995 199.283 107.875C198.537 106.755 198.163 105.413 198.163 103.85C198.163 102.287 198.525 100.933 199.248 99.79C199.995 98.6467 201.022 97.76 202.328 97.13C203.658 96.5 205.163 96.185 206.843 96.185C207.333 96.185 207.8 96.22 208.243 96.29C208.71 96.36 209.153 96.4533 209.573 96.57L217.728 96.605V99.86C216.608 99.8833 215.477 99.7317 214.333 99.405C213.213 99.055 212.222 98.6933 211.358 98.32L211.253 98.11C212.047 98.5067 212.758 98.9967 213.388 99.58C214.042 100.14 214.555 100.782 214.928 101.505C215.302 102.228 215.488 103.045 215.488 103.955C215.488 105.495 215.115 106.813 214.368 107.91C213.645 109.007 212.63 109.847 211.323 110.43C210.04 111.013 208.547 111.305 206.843 111.305ZM212.443 121.105V120.3C212.443 119.157 212.105 118.352 211.428 117.885C210.752 117.418 209.807 117.185 208.593 117.185H203.868C202.935 117.185 202.13 117.103 201.453 116.94C200.8 116.8 200.275 116.578 199.878 116.275C199.482 115.995 199.19 115.657 199.003 115.26C198.817 114.887 198.723 114.467 198.723 114C198.723 113.067 199.003 112.367 199.563 111.9C200.147 111.433 200.905 111.13 201.838 110.99C202.795 110.85 203.798 110.827 204.848 110.92L206.843 111.305C205.467 111.352 204.417 111.48 203.693 111.69C202.993 111.877 202.643 112.262 202.643 112.845C202.643 113.195 202.783 113.475 203.063 113.685C203.343 113.895 203.74 114 204.253 114H209.223C210.647 114 211.895 114.163 212.968 114.49C214.042 114.84 214.87 115.412 215.453 116.205C216.06 117.022 216.363 118.13 216.363 119.53V121.105H212.443ZM206.843 108.26C207.777 108.26 208.605 108.085 209.328 107.735C210.052 107.385 210.623 106.883 211.043 106.23C211.463 105.577 211.673 104.783 211.673 103.85C211.673 102.917 211.463 102.112 211.043 101.435C210.623 100.758 210.052 100.245 209.328 99.895C208.605 99.545 207.777 99.37 206.843 99.37C205.933 99.37 205.105 99.545 204.358 99.895C203.635 100.245 203.063 100.758 202.643 101.435C202.223 102.088 202.013 102.893 202.013 103.85C202.013 104.783 202.223 105.577 202.643 106.23C203.063 106.883 203.635 107.385 204.358 107.735C205.082 108.085 205.91 108.26 206.843 108.26ZM235.212 114.385C234.232 114.385 233.299 114.245 232.412 113.965C231.549 113.662 230.791 113.253 230.137 112.74C229.484 112.227 228.959 111.608 228.562 110.885C228.189 110.162 228.002 109.357 228.002 108.47C228.002 107.397 228.247 106.463 228.737 105.67C229.227 104.877 229.892 104.223 230.732 103.71C231.596 103.197 232.576 102.812 233.672 102.555C234.769 102.275 235.936 102.112 237.172 102.065L237.312 102.24C236.146 102.193 235.049 102.088 234.022 101.925C233.019 101.738 232.132 101.447 231.362 101.05C230.616 100.653 230.032 100.14 229.612 99.51C229.192 98.8567 228.982 98.0633 228.982 97.13C228.982 95.8933 229.332 94.8083 230.032 93.875C230.756 92.9417 231.782 92.2183 233.112 91.705C234.466 91.1683 236.052 90.9 237.872 90.9C239.132 90.9 240.276 91.04 241.302 91.32C242.329 91.5767 243.204 91.985 243.927 92.545C244.674 93.0817 245.246 93.7583 245.642 94.575C246.039 95.3683 246.237 96.29 246.237 97.34H242.667C242.644 96.36 242.201 95.6133 241.337 95.1C240.497 94.5867 239.354 94.33 237.907 94.33C236.321 94.33 235.107 94.6217 234.267 95.205C233.427 95.7883 233.007 96.5817 233.007 97.585C233.007 98.285 233.206 98.9033 233.602 99.44C234.022 99.9533 234.629 100.35 235.422 100.63C236.216 100.887 237.196 101.015 238.362 101.015H250.612V103.64H246.552V114H242.947C242.854 113.277 242.784 112.6 242.737 111.97C242.714 111.317 242.691 110.605 242.667 109.835C242.667 109.065 242.667 108.132 242.667 107.035L242.912 107.805C242.749 108.622 242.481 109.427 242.107 110.22C241.757 110.99 241.279 111.69 240.672 112.32C240.066 112.95 239.307 113.452 238.397 113.825C237.511 114.198 236.449 114.385 235.212 114.385ZM236.787 111.165C238.071 111.165 239.144 110.908 240.007 110.395C240.871 109.858 241.524 109.17 241.967 108.33C242.434 107.467 242.667 106.58 242.667 105.67V103.64H238.362C236.449 103.64 234.921 103.978 233.777 104.655C232.657 105.308 232.097 106.288 232.097 107.595C232.097 108.668 232.494 109.532 233.287 110.185C234.104 110.838 235.271 111.165 236.787 111.165ZM64.69 153.935H62.905L74.945 133.32H78.9V156H74.945V139.025L75.855 139.27L65.985 156H61.645L51.775 139.34L52.72 139.06V156H48.73V133.32H52.72L64.69 153.935ZM98.3452 150.26H102.09C101.904 151.45 101.437 152.512 100.69 153.445C99.9669 154.355 98.9752 155.078 97.7152 155.615C96.4552 156.128 94.9502 156.385 93.2002 156.385C91.2169 156.385 89.4436 156.023 87.8802 155.3C86.3169 154.553 85.0919 153.503 84.2052 152.15C83.3186 150.797 82.8752 149.187 82.8752 147.32C82.8752 145.477 83.3069 143.867 84.1702 142.49C85.0336 141.113 86.2236 140.052 87.7402 139.305C89.2802 138.558 91.0536 138.185 93.0602 138.185C95.1369 138.185 96.8636 138.558 98.2402 139.305C99.6402 140.028 100.679 141.125 101.355 142.595C102.032 144.042 102.312 145.873 102.195 148.09H86.8302C86.9469 149.07 87.2619 149.957 87.7752 150.75C88.3119 151.52 89.0352 152.127 89.9452 152.57C90.8552 152.99 91.9169 153.2 93.1302 153.2C94.4836 153.2 95.6152 152.932 96.5252 152.395C97.4586 151.858 98.0652 151.147 98.3452 150.26ZM92.9552 141.335C91.3686 141.335 90.0619 141.732 89.0352 142.525C88.0086 143.295 87.3436 144.287 87.0402 145.5H98.2752C98.1819 144.193 97.6569 143.178 96.7002 142.455C95.7436 141.708 94.4952 141.335 92.9552 141.335ZM105.66 138.57H109.545V156H105.66V138.57ZM116.895 138.185C117.899 138.185 118.82 138.325 119.66 138.605C120.524 138.885 121.259 139.317 121.865 139.9C122.495 140.46 122.974 141.16 123.3 142C123.65 142.84 123.825 143.832 123.825 144.975V156H119.94V145.745C119.94 144.322 119.59 143.272 118.89 142.595C118.214 141.895 117.14 141.545 115.67 141.545C114.55 141.545 113.524 141.79 112.59 142.28C111.68 142.747 110.934 143.365 110.35 144.135C109.767 144.882 109.429 145.71 109.335 146.62L109.3 144.73C109.417 143.867 109.674 143.05 110.07 142.28C110.467 141.487 110.992 140.787 111.645 140.18C112.299 139.55 113.069 139.06 113.955 138.71C114.842 138.36 115.822 138.185 116.895 138.185ZM126.891 138.57H139.211V141.755H126.891V138.57ZM131.091 133.88H135.011V156H131.091V133.88ZM151.268 156.385C149.332 156.385 147.593 156.035 146.053 155.335C144.513 154.635 143.3 153.608 142.413 152.255C141.527 150.902 141.083 149.257 141.083 147.32C141.083 145.407 141.527 143.773 142.413 142.42C143.3 141.043 144.513 139.993 146.053 139.27C147.593 138.547 149.332 138.185 151.268 138.185C153.205 138.185 154.932 138.547 156.448 139.27C157.965 139.993 159.155 141.043 160.018 142.42C160.905 143.773 161.348 145.407 161.348 147.32C161.348 149.257 160.905 150.902 160.018 152.255C159.155 153.608 157.965 154.635 156.448 155.335C154.932 156.035 153.205 156.385 151.268 156.385ZM151.268 153.2C152.388 153.2 153.415 152.978 154.348 152.535C155.282 152.092 156.017 151.427 156.553 150.54C157.113 149.653 157.393 148.58 157.393 147.32C157.393 146.06 157.113 144.987 156.553 144.1C156.017 143.213 155.282 142.537 154.348 142.07C153.438 141.58 152.412 141.335 151.268 141.335C150.125 141.335 149.087 141.568 148.153 142.035C147.22 142.502 146.462 143.178 145.878 144.065C145.318 144.952 145.038 146.037 145.038 147.32C145.038 148.58 145.318 149.653 145.878 150.54C146.438 151.427 147.185 152.092 148.118 152.535C149.075 152.978 150.125 153.2 151.268 153.2ZM164.825 138.57H168.71V156H164.825V138.57ZM175.01 141.895C173.75 141.895 172.665 142.163 171.755 142.7C170.869 143.237 170.157 143.89 169.62 144.66C169.084 145.43 168.71 146.177 168.5 146.9L168.465 144.94C168.489 144.683 168.57 144.298 168.71 143.785C168.85 143.248 169.06 142.665 169.34 142.035C169.644 141.405 170.04 140.798 170.53 140.215C171.044 139.608 171.662 139.118 172.385 138.745C173.132 138.372 174.007 138.185 175.01 138.185V141.895ZM182.5 131.185V134.93H177.845V131.185H182.5ZM178.195 138.57H182.115V156H178.195V138.57ZM186.769 138.57H190.654V156H186.769V138.57ZM198.004 138.185C199.007 138.185 199.929 138.325 200.769 138.605C201.632 138.885 202.367 139.317 202.974 139.9C203.604 140.46 204.082 141.16 204.409 142C204.759 142.84 204.934 143.832 204.934 144.975V156H201.049V145.745C201.049 144.322 200.699 143.272 199.999 142.595C199.322 141.895 198.249 141.545 196.779 141.545C195.659 141.545 194.632 141.79 193.699 142.28C192.789 142.747 192.042 143.365 191.459 144.135C190.875 144.882 190.537 145.71 190.444 146.62L190.409 144.73C190.525 143.867 190.782 143.05 191.179 142.28C191.575 141.487 192.1 140.787 192.754 140.18C193.407 139.55 194.177 139.06 195.064 138.71C195.95 138.36 196.93 138.185 198.004 138.185ZM216.995 153.305C215.361 153.305 213.88 153.013 212.55 152.43C211.243 151.847 210.205 150.995 209.435 149.875C208.688 148.755 208.315 147.413 208.315 145.85C208.315 144.287 208.676 142.933 209.4 141.79C210.146 140.647 211.173 139.76 212.48 139.13C213.81 138.5 215.315 138.185 216.995 138.185C217.485 138.185 217.951 138.22 218.395 138.29C218.861 138.36 219.305 138.453 219.725 138.57L227.88 138.605V141.86C226.76 141.883 225.628 141.732 224.485 141.405C223.365 141.055 222.373 140.693 221.51 140.32L221.405 140.11C222.198 140.507 222.91 140.997 223.54 141.58C224.193 142.14 224.706 142.782 225.08 143.505C225.453 144.228 225.64 145.045 225.64 145.955C225.64 147.495 225.266 148.813 224.52 149.91C223.796 151.007 222.781 151.847 221.475 152.43C220.191 153.013 218.698 153.305 216.995 153.305ZM222.595 163.105V162.3C222.595 161.157 222.256 160.352 221.58 159.885C220.903 159.418 219.958 159.185 218.745 159.185H214.02C213.086 159.185 212.281 159.103 211.605 158.94C210.951 158.8 210.426 158.578 210.03 158.275C209.633 157.995 209.341 157.657 209.155 157.26C208.968 156.887 208.875 156.467 208.875 156C208.875 155.067 209.155 154.367 209.715 153.9C210.298 153.433 211.056 153.13 211.99 152.99C212.946 152.85 213.95 152.827 215 152.92L216.995 153.305C215.618 153.352 214.568 153.48 213.845 153.69C213.145 153.877 212.795 154.262 212.795 154.845C212.795 155.195 212.935 155.475 213.215 155.685C213.495 155.895 213.891 156 214.405 156H219.375C220.798 156 222.046 156.163 223.12 156.49C224.193 156.84 225.021 157.412 225.605 158.205C226.211 159.022 226.515 160.13 226.515 161.53V163.105H222.595ZM216.995 150.26C217.928 150.26 218.756 150.085 219.48 149.735C220.203 149.385 220.775 148.883 221.195 148.23C221.615 147.577 221.825 146.783 221.825 145.85C221.825 144.917 221.615 144.112 221.195 143.435C220.775 142.758 220.203 142.245 219.48 141.895C218.756 141.545 217.928 141.37 216.995 141.37C216.085 141.37 215.256 141.545 214.51 141.895C213.786 142.245 213.215 142.758 212.795 143.435C212.375 144.088 212.165 144.893 212.165 145.85C212.165 146.783 212.375 147.577 212.795 148.23C213.215 148.883 213.786 149.385 214.51 149.735C215.233 150.085 216.061 150.26 216.995 150.26ZM237.839 138.78H250.474V141.93H237.839V138.78ZM247.884 131.57H250.754V134.93H248.584C247.93 134.907 247.359 134.977 246.869 135.14C246.402 135.303 246.029 135.607 245.749 136.05C245.492 136.493 245.364 137.123 245.364 137.94V156H241.444V137.59C241.444 136.19 241.7 135.047 242.214 134.16C242.727 133.273 243.462 132.62 244.419 132.2C245.399 131.78 246.554 131.57 247.884 131.57ZM262.386 156.385C260.45 156.385 258.711 156.035 257.171 155.335C255.631 154.635 254.418 153.608 253.531 152.255C252.645 150.902 252.201 149.257 252.201 147.32C252.201 145.407 252.645 143.773 253.531 142.42C254.418 141.043 255.631 139.993 257.171 139.27C258.711 138.547 260.45 138.185 262.386 138.185C264.323 138.185 266.05 138.547 267.566 139.27C269.083 139.993 270.273 141.043 271.136 142.42C272.023 143.773 272.466 145.407 272.466 147.32C272.466 149.257 272.023 150.902 271.136 152.255C270.273 153.608 269.083 154.635 267.566 155.335C266.05 156.035 264.323 156.385 262.386 156.385ZM262.386 153.2C263.506 153.2 264.533 152.978 265.466 152.535C266.4 152.092 267.135 151.427 267.671 150.54C268.231 149.653 268.511 148.58 268.511 147.32C268.511 146.06 268.231 144.987 267.671 144.1C267.135 143.213 266.4 142.537 265.466 142.07C264.556 141.58 263.53 141.335 262.386 141.335C261.243 141.335 260.205 141.568 259.271 142.035C258.338 142.502 257.58 143.178 256.996 144.065C256.436 144.952 256.156 146.037 256.156 147.32C256.156 148.58 256.436 149.653 256.996 150.54C257.556 151.427 258.303 152.092 259.236 152.535C260.193 152.978 261.243 153.2 262.386 153.2ZM275.943 138.57H279.828V156H275.943V138.57ZM286.128 141.895C284.868 141.895 283.783 142.163 282.873 142.7C281.987 143.237 281.275 143.89 280.738 144.66C280.202 145.43 279.828 146.177 279.618 146.9L279.583 144.94C279.607 144.683 279.688 144.298 279.828 143.785C279.968 143.248 280.178 142.665 280.458 142.035C280.762 141.405 281.158 140.798 281.648 140.215C282.162 139.608 282.78 139.118 283.503 138.745C284.25 138.372 285.125 138.185 286.128 138.185V141.895ZM60.98 198.42C58.32 198.42 55.9983 197.942 54.015 196.985C52.055 196.028 50.5267 194.675 49.43 192.925C48.3567 191.175 47.82 189.087 47.82 186.66C47.82 184.233 48.3567 182.145 49.43 180.395C50.5267 178.622 52.055 177.268 54.015 176.335C55.9983 175.378 58.32 174.9 60.98 174.9C63.6633 174.9 65.985 175.378 67.945 176.335C69.905 177.268 71.4217 178.622 72.495 180.395C73.5917 182.145 74.14 184.233 74.14 186.66C74.14 189.087 73.5917 191.175 72.495 192.925C71.4217 194.675 69.905 196.028 67.945 196.985C65.985 197.942 63.6633 198.42 60.98 198.42ZM60.98 194.92C62.7533 194.92 64.3167 194.617 65.67 194.01C67.0233 193.403 68.085 192.493 68.855 191.28C69.6483 190.043 70.045 188.503 70.045 186.66C70.045 184.84 69.6483 183.323 68.855 182.11C68.085 180.873 67.0233 179.952 65.67 179.345C64.3167 178.715 62.7533 178.4 60.98 178.4C59.23 178.4 57.6667 178.715 56.29 179.345C54.9133 179.952 53.8283 180.873 53.035 182.11C52.2417 183.323 51.845 184.84 51.845 186.66C51.845 188.503 52.2417 190.043 53.035 191.28C53.8283 192.493 54.9133 193.403 56.29 194.01C57.6667 194.617 59.23 194.92 60.98 194.92ZM78.1456 180.57H82.0306V198H78.1456V180.57ZM89.3806 180.185C90.3839 180.185 91.3056 180.325 92.1456 180.605C93.0089 180.885 93.7439 181.317 94.3506 181.9C94.9806 182.46 95.4589 183.16 95.7856 184C96.1356 184.84 96.3106 185.832 96.3106 186.975V198H92.4256V187.745C92.4256 186.322 92.0756 185.272 91.3756 184.595C90.6989 183.895 89.6256 183.545 88.1556 183.545C87.0356 183.545 86.0089 183.79 85.0756 184.28C84.1656 184.747 83.4189 185.365 82.8356 186.135C82.2523 186.882 81.9139 187.71 81.8206 188.62L81.7856 186.73C81.9023 185.867 82.1589 185.05 82.5556 184.28C82.9523 183.487 83.4773 182.787 84.1306 182.18C84.7839 181.55 85.5539 181.06 86.4406 180.71C87.3273 180.36 88.3073 180.185 89.3806 180.185ZM100.952 173.57H104.837V198H100.952V173.57ZM114.107 173.185V176.93H109.452V173.185H114.107ZM109.802 180.57H113.722V198H109.802V180.57ZM118.375 180.57H122.26V198H118.375V180.57ZM129.61 180.185C130.613 180.185 131.535 180.325 132.375 180.605C133.238 180.885 133.973 181.317 134.58 181.9C135.21 182.46 135.688 183.16 136.015 184C136.365 184.84 136.54 185.832 136.54 186.975V198H132.655V187.745C132.655 186.322 132.305 185.272 131.605 184.595C130.928 183.895 129.855 183.545 128.385 183.545C127.265 183.545 126.238 183.79 125.305 184.28C124.395 184.747 123.648 185.365 123.065 186.135C122.482 186.882 122.143 187.71 122.05 188.62L122.015 186.73C122.132 185.867 122.388 185.05 122.785 184.28C123.182 183.487 123.707 182.787 124.36 182.18C125.013 181.55 125.783 181.06 126.67 180.71C127.557 180.36 128.537 180.185 129.61 180.185ZM155.391 192.26H159.136C158.949 193.45 158.483 194.512 157.736 195.445C157.013 196.355 156.021 197.078 154.761 197.615C153.501 198.128 151.996 198.385 150.246 198.385C148.263 198.385 146.489 198.023 144.926 197.3C143.363 196.553 142.138 195.503 141.251 194.15C140.364 192.797 139.921 191.187 139.921 189.32C139.921 187.477 140.353 185.867 141.216 184.49C142.079 183.113 143.269 182.052 144.786 181.305C146.326 180.558 148.099 180.185 150.106 180.185C152.183 180.185 153.909 180.558 155.286 181.305C156.686 182.028 157.724 183.125 158.401 184.595C159.078 186.042 159.358 187.873 159.241 190.09H143.876C143.993 191.07 144.308 191.957 144.821 192.75C145.358 193.52 146.081 194.127 146.991 194.57C147.901 194.99 148.963 195.2 150.176 195.2C151.529 195.2 152.661 194.932 153.571 194.395C154.504 193.858 155.111 193.147 155.391 192.26ZM150.001 183.335C148.414 183.335 147.108 183.732 146.081 184.525C145.054 185.295 144.389 186.287 144.086 187.5H155.321C155.228 186.193 154.703 185.178 153.746 184.455C152.789 183.708 151.541 183.335 150.001 183.335ZM169.828 190.475H173.713C173.806 191.338 174.144 192.12 174.728 192.82C175.334 193.497 176.128 194.033 177.108 194.43C178.111 194.803 179.254 194.99 180.538 194.99C181.681 194.99 182.626 194.85 183.373 194.57C184.119 194.29 184.668 193.905 185.018 193.415C185.391 192.902 185.578 192.307 185.578 191.63C185.578 190.953 185.356 190.428 184.913 190.055C184.493 189.658 183.839 189.332 182.953 189.075C182.066 188.795 180.934 188.527 179.558 188.27C178.414 188.06 177.306 187.78 176.233 187.43C175.159 187.08 174.191 186.637 173.328 186.1C172.488 185.563 171.823 184.91 171.333 184.14C170.843 183.347 170.598 182.413 170.598 181.34C170.598 180.127 170.936 179.03 171.613 178.05C172.313 177.07 173.339 176.3 174.693 175.74C176.046 175.18 177.691 174.9 179.628 174.9C182.591 174.9 184.854 175.588 186.418 176.965C187.981 178.318 188.739 180.162 188.693 182.495H184.878C184.808 181.025 184.271 179.963 183.268 179.31C182.264 178.657 180.993 178.33 179.453 178.33C178.076 178.33 176.921 178.575 175.988 179.065C175.054 179.555 174.588 180.348 174.588 181.445C174.588 181.912 174.693 182.32 174.903 182.67C175.136 182.997 175.509 183.3 176.023 183.58C176.536 183.837 177.236 184.093 178.123 184.35C179.033 184.583 180.141 184.84 181.448 185.12C182.568 185.307 183.618 185.563 184.598 185.89C185.578 186.217 186.429 186.625 187.153 187.115C187.899 187.605 188.483 188.235 188.903 189.005C189.323 189.775 189.533 190.72 189.533 191.84C189.533 193.123 189.206 194.267 188.553 195.27C187.899 196.25 186.896 197.032 185.543 197.615C184.213 198.175 182.486 198.455 180.363 198.455C178.753 198.455 177.341 198.268 176.128 197.895C174.938 197.498 173.923 196.997 173.083 196.39C172.243 195.76 171.566 195.083 171.053 194.36C170.563 193.637 170.213 192.937 170.003 192.26C169.816 191.56 169.758 190.965 169.828 190.475ZM211.257 198H207.372V180.57H211.257V198ZM207.582 189.705L207.617 190.825C207.57 191.128 207.465 191.583 207.302 192.19C207.162 192.797 206.917 193.462 206.567 194.185C206.24 194.885 205.797 195.562 205.237 196.215C204.7 196.845 204.024 197.37 203.207 197.79C202.39 198.187 201.399 198.385 200.232 198.385C199.392 198.385 198.54 198.268 197.677 198.035C196.837 197.825 196.067 197.463 195.367 196.95C194.69 196.437 194.142 195.737 193.722 194.85C193.302 193.963 193.092 192.843 193.092 191.49V180.57H196.977V190.755C196.977 191.852 197.152 192.715 197.502 193.345C197.875 193.952 198.389 194.383 199.042 194.64C199.695 194.897 200.454 195.025 201.317 195.025C202.554 195.025 203.604 194.745 204.467 194.185C205.33 193.625 206.019 192.937 206.532 192.12C207.069 191.28 207.419 190.475 207.582 189.705ZM234.308 191.245C234.168 192.738 233.69 194.022 232.873 195.095C232.056 196.168 230.96 196.985 229.583 197.545C228.23 198.105 226.666 198.385 224.893 198.385C222.98 198.385 221.241 198.035 219.678 197.335C218.138 196.635 216.913 195.608 216.003 194.255C215.093 192.902 214.638 191.257 214.638 189.32C214.638 187.383 215.093 185.738 216.003 184.385C216.913 183.032 218.138 181.993 219.678 181.27C221.241 180.547 222.98 180.185 224.893 180.185C226.666 180.185 228.23 180.477 229.583 181.06C230.936 181.62 232.021 182.425 232.838 183.475C233.655 184.525 234.133 185.797 234.273 187.29H230.703C230.306 186.053 229.583 185.097 228.533 184.42C227.506 183.72 226.293 183.37 224.893 183.37C223.75 183.37 222.7 183.603 221.743 184.07C220.786 184.513 220.016 185.178 219.433 186.065C218.873 186.928 218.593 188.013 218.593 189.32C218.593 190.603 218.873 191.688 219.433 192.575C220.016 193.462 220.786 194.127 221.743 194.57C222.7 194.99 223.75 195.2 224.893 195.2C226.433 195.2 227.693 194.862 228.673 194.185C229.676 193.485 230.365 192.505 230.738 191.245H234.308ZM256.491 191.245C256.351 192.738 255.872 194.022 255.056 195.095C254.239 196.168 253.142 196.985 251.766 197.545C250.412 198.105 248.849 198.385 247.076 198.385C245.162 198.385 243.424 198.035 241.861 197.335C240.321 196.635 239.096 195.608 238.186 194.255C237.276 192.902 236.821 191.257 236.821 189.32C236.821 187.383 237.276 185.738 238.186 184.385C239.096 183.032 240.321 181.993 241.861 181.27C243.424 180.547 245.162 180.185 247.076 180.185C248.849 180.185 250.412 180.477 251.766 181.06C253.119 181.62 254.204 182.425 255.021 183.475C255.837 184.525 256.316 185.797 256.456 187.29H252.886C252.489 186.053 251.766 185.097 250.716 184.42C249.689 183.72 248.476 183.37 247.076 183.37C245.932 183.37 244.882 183.603 243.926 184.07C242.969 184.513 242.199 185.178 241.616 186.065C241.056 186.928 240.776 188.013 240.776 189.32C240.776 190.603 241.056 191.688 241.616 192.575C242.199 193.462 242.969 194.127 243.926 194.57C244.882 194.99 245.932 195.2 247.076 195.2C248.616 195.2 249.876 194.862 250.856 194.185C251.859 193.485 252.547 192.505 252.921 191.245H256.491ZM274.473 192.26H278.218C278.031 193.45 277.565 194.512 276.818 195.445C276.095 196.355 275.103 197.078 273.843 197.615C272.583 198.128 271.078 198.385 269.328 198.385C267.345 198.385 265.571 198.023 264.008 197.3C262.445 196.553 261.22 195.503 260.333 194.15C259.446 192.797 259.003 191.187 259.003 189.32C259.003 187.477 259.435 185.867 260.298 184.49C261.161 183.113 262.351 182.052 263.868 181.305C265.408 180.558 267.181 180.185 269.188 180.185C271.265 180.185 272.991 180.558 274.368 181.305C275.768 182.028 276.806 183.125 277.483 184.595C278.16 186.042 278.44 187.873 278.323 190.09H262.958C263.075 191.07 263.39 191.957 263.903 192.75C264.44 193.52 265.163 194.127 266.073 194.57C266.983 194.99 268.045 195.2 269.258 195.2C270.611 195.2 271.743 194.932 272.653 194.395C273.586 193.858 274.193 193.147 274.473 192.26ZM269.083 183.335C267.496 183.335 266.19 183.732 265.163 184.525C264.136 185.295 263.471 186.287 263.168 187.5H274.403C274.31 186.193 273.785 185.178 272.828 184.455C271.871 183.708 270.623 183.335 269.083 183.335ZM281.018 192.26H284.623C284.81 193.147 285.288 193.87 286.058 194.43C286.828 194.967 287.866 195.235 289.173 195.235C290.013 195.235 290.666 195.142 291.133 194.955C291.623 194.768 291.961 194.512 292.148 194.185C292.358 193.858 292.463 193.485 292.463 193.065C292.463 192.552 292.311 192.155 292.008 191.875C291.728 191.595 291.308 191.362 290.748 191.175C290.188 190.988 289.488 190.825 288.648 190.685C287.785 190.475 286.933 190.242 286.093 189.985C285.253 189.728 284.495 189.413 283.818 189.04C283.141 188.643 282.605 188.153 282.208 187.57C281.835 186.963 281.648 186.228 281.648 185.365C281.648 184.572 281.823 183.86 282.173 183.23C282.546 182.577 283.06 182.028 283.713 181.585C284.366 181.142 285.136 180.803 286.023 180.57C286.91 180.313 287.878 180.185 288.928 180.185C290.445 180.185 291.705 180.43 292.708 180.92C293.735 181.41 294.505 182.098 295.018 182.985C295.555 183.872 295.823 184.887 295.823 186.03H292.393C292.206 185.097 291.845 184.42 291.308 184C290.771 183.58 289.966 183.37 288.893 183.37C287.82 183.37 287.003 183.557 286.443 183.93C285.883 184.303 285.603 184.817 285.603 185.47C285.603 185.96 285.778 186.357 286.128 186.66C286.501 186.94 287.026 187.185 287.703 187.395C288.38 187.605 289.173 187.815 290.083 188.025C290.923 188.258 291.716 188.503 292.463 188.76C293.21 188.993 293.875 189.297 294.458 189.67C295.065 190.02 295.543 190.487 295.893 191.07C296.243 191.653 296.418 192.377 296.418 193.24C296.418 194.313 296.126 195.235 295.543 196.005C294.983 196.775 294.166 197.37 293.093 197.79C292.02 198.187 290.725 198.385 289.208 198.385C287.878 198.385 286.723 198.233 285.743 197.93C284.786 197.627 283.981 197.23 283.328 196.74C282.698 196.25 282.208 195.725 281.858 195.165C281.508 194.605 281.263 194.068 281.123 193.555C281.006 193.042 280.971 192.61 281.018 192.26ZM299.168 192.26H302.773C302.959 193.147 303.438 193.87 304.208 194.43C304.978 194.967 306.016 195.235 307.323 195.235C308.163 195.235 308.816 195.142 309.283 194.955C309.773 194.768 310.111 194.512 310.298 194.185C310.508 193.858 310.613 193.485 310.613 193.065C310.613 192.552 310.461 192.155 310.158 191.875C309.878 191.595 309.458 191.362 308.898 191.175C308.338 190.988 307.638 190.825 306.798 190.685C305.934 190.475 305.083 190.242 304.243 189.985C303.403 189.728 302.644 189.413 301.968 189.04C301.291 188.643 300.754 188.153 300.358 187.57C299.984 186.963 299.798 186.228 299.798 185.365C299.798 184.572 299.973 183.86 300.323 183.23C300.696 182.577 301.209 182.028 301.863 181.585C302.516 181.142 303.286 180.803 304.173 180.57C305.059 180.313 306.028 180.185 307.078 180.185C308.594 180.185 309.854 180.43 310.858 180.92C311.884 181.41 312.654 182.098 313.168 182.985C313.704 183.872 313.973 184.887 313.973 186.03H310.543C310.356 185.097 309.994 184.42 309.458 184C308.921 183.58 308.116 183.37 307.043 183.37C305.969 183.37 305.153 183.557 304.593 183.93C304.033 184.303 303.753 184.817 303.753 185.47C303.753 185.96 303.928 186.357 304.278 186.66C304.651 186.94 305.176 187.185 305.853 187.395C306.529 187.605 307.323 187.815 308.233 188.025C309.073 188.258 309.866 188.503 310.613 188.76C311.359 188.993 312.024 189.297 312.608 189.67C313.214 190.02 313.693 190.487 314.043 191.07C314.393 191.653 314.568 192.377 314.568 193.24C314.568 194.313 314.276 195.235 313.693 196.005C313.133 196.775 312.316 197.37 311.243 197.79C310.169 198.187 308.874 198.385 307.358 198.385C306.028 198.385 304.873 198.233 303.893 197.93C302.936 197.627 302.131 197.23 301.478 196.74C300.848 196.25 300.358 195.725 300.008 195.165C299.658 194.605 299.413 194.068 299.273 193.555C299.156 193.042 299.121 192.61 299.168 192.26Z" fill="#282828"/>
<rect x="46.5" y="358.5" width="189" height="69" rx="34.5" stroke="#282828"/>
<path d="M74.66 398.22H79.54V400H72.38V385.88H74.66V398.22ZM91.5653 393.96C91.5653 394.333 91.5386 394.66 91.4853 394.94H83.0053C83.0453 396.073 83.3586 396.913 83.9453 397.46C84.532 398.007 85.2586 398.28 86.1253 398.28C86.8853 398.28 87.5253 398.087 88.0453 397.7C88.5786 397.313 88.9053 396.8 89.0253 396.16H91.4653C91.3186 396.933 91.012 397.62 90.5453 398.22C90.0786 398.82 89.472 399.293 88.7253 399.64C87.9786 399.973 87.1453 400.14 86.2253 400.14C85.1586 400.14 84.212 399.913 83.3853 399.46C82.572 399.007 81.932 398.353 81.4653 397.5C80.9986 396.647 80.7653 395.64 80.7653 394.48C80.7653 393.333 80.9986 392.333 81.4653 391.48C81.932 390.627 82.572 389.973 83.3853 389.52C84.212 389.067 85.1586 388.84 86.2253 388.84C87.3053 388.84 88.2453 389.067 89.0453 389.52C89.8586 389.96 90.4786 390.573 90.9053 391.36C91.3453 392.133 91.5653 393 91.5653 393.96ZM89.2653 393.9C89.292 393.18 89.1653 392.58 88.8853 392.1C88.6186 391.607 88.2453 391.247 87.7653 391.02C87.2986 390.78 86.7853 390.66 86.2253 390.66C85.332 390.66 84.5853 390.933 83.9853 391.48C83.3853 392.027 83.0586 392.833 83.0053 393.9H89.2653ZM98.1867 388.84C99.1867 388.84 100.04 389.087 100.747 389.58C101.453 390.073 101.953 390.727 102.247 391.54V388.98H104.527V400H102.247V397.44C101.953 398.253 101.453 398.907 100.747 399.4C100.04 399.893 99.1867 400.14 98.1867 400.14C97.2267 400.14 96.3667 399.913 95.6067 399.46C94.8601 399.007 94.2734 398.353 93.8467 397.5C93.4201 396.647 93.2067 395.64 93.2067 394.48C93.2067 393.333 93.4201 392.333 93.8467 391.48C94.2734 390.627 94.8601 389.973 95.6067 389.52C96.3667 389.067 97.2267 388.84 98.1867 388.84ZM98.8867 390.84C97.8734 390.84 97.0601 391.167 96.4467 391.82C95.8467 392.46 95.5467 393.347 95.5467 394.48C95.5467 395.613 95.8467 396.507 96.4467 397.16C97.0601 397.8 97.8734 398.12 98.8867 398.12C99.5267 398.12 100.1 397.973 100.607 397.68C101.113 397.373 101.513 396.947 101.807 396.4C102.1 395.853 102.247 395.213 102.247 394.48C102.247 393.76 102.1 393.127 101.807 392.58C101.513 392.02 101.113 391.593 100.607 391.3C100.1 390.993 99.5267 390.84 98.8867 390.84ZM109.543 391.14C109.916 390.42 110.449 389.853 111.143 389.44C111.836 389.013 112.636 388.8 113.543 388.8V391.28H112.863C111.863 391.28 111.056 391.527 110.443 392.02C109.843 392.5 109.543 393.3 109.543 394.42V400H107.263V388.98H109.543V391.14ZM121.411 388.8C122.691 388.8 123.718 389.213 124.491 390.04C125.264 390.867 125.651 392.047 125.651 393.58V400H123.371V393.82C123.371 392.833 123.118 392.073 122.611 391.54C122.104 390.993 121.411 390.72 120.531 390.72C119.624 390.72 118.898 391.013 118.351 391.6C117.804 392.173 117.531 393.02 117.531 394.14V400H115.251V388.98H117.531V391.4C117.824 390.573 118.318 389.933 119.011 389.48C119.704 389.027 120.504 388.8 121.411 388.8ZM146.785 388.8C148.092 388.8 149.132 389.213 149.905 390.04C150.692 390.867 151.085 392.047 151.085 393.58V400H148.805V393.82C148.805 392.86 148.565 392.12 148.085 391.6C147.605 391.067 146.945 390.8 146.105 390.8C145.212 390.8 144.498 391.087 143.965 391.66C143.445 392.22 143.185 393.047 143.185 394.14V400H140.905V393.82C140.905 392.86 140.665 392.12 140.185 391.6C139.705 391.067 139.045 390.8 138.205 390.8C137.312 390.8 136.598 391.087 136.065 391.66C135.545 392.22 135.285 393.047 135.285 394.14V400H133.005V388.98H135.285V391.28C135.565 390.48 136.032 389.867 136.685 389.44C137.338 389.013 138.105 388.8 138.985 388.8C139.905 388.8 140.698 389.027 141.365 389.48C142.045 389.933 142.538 390.587 142.845 391.44C143.165 390.613 143.678 389.967 144.385 389.5C145.092 389.033 145.892 388.8 146.785 388.8ZM158.787 388.84C159.854 388.84 160.814 389.067 161.667 389.52C162.521 389.973 163.187 390.627 163.667 391.48C164.147 392.333 164.387 393.333 164.387 394.48C164.387 395.64 164.147 396.647 163.667 397.5C163.187 398.353 162.521 399.007 161.667 399.46C160.814 399.913 159.854 400.14 158.787 400.14C157.721 400.14 156.761 399.913 155.907 399.46C155.067 399.007 154.401 398.353 153.907 397.5C153.427 396.633 153.187 395.627 153.187 394.48C153.187 393.333 153.427 392.333 153.907 391.48C154.401 390.627 155.067 389.973 155.907 389.52C156.761 389.067 157.721 388.84 158.787 388.84ZM158.787 390.82C158.201 390.82 157.661 390.953 157.167 391.22C156.674 391.487 156.274 391.9 155.967 392.46C155.674 393.007 155.527 393.68 155.527 394.48C155.527 395.293 155.674 395.973 155.967 396.52C156.274 397.067 156.674 397.473 157.167 397.74C157.661 398.007 158.201 398.14 158.787 398.14C159.374 398.14 159.914 398.007 160.407 397.74C160.901 397.473 161.294 397.067 161.587 396.52C161.894 395.973 162.047 395.293 162.047 394.48C162.047 393.68 161.894 393.007 161.587 392.46C161.294 391.9 160.901 391.487 160.407 391.22C159.914 390.953 159.374 390.82 158.787 390.82ZM168.859 391.14C169.233 390.42 169.766 389.853 170.459 389.44C171.153 389.013 171.953 388.8 172.859 388.8V391.28H172.179C171.179 391.28 170.373 391.527 169.759 392.02C169.159 392.5 168.859 393.3 168.859 394.42V400H166.579V388.98H168.859V391.14ZM184.808 393.96C184.808 394.333 184.781 394.66 184.728 394.94H176.248C176.288 396.073 176.601 396.913 177.188 397.46C177.774 398.007 178.501 398.28 179.368 398.28C180.128 398.28 180.768 398.087 181.288 397.7C181.821 397.313 182.148 396.8 182.268 396.16H184.708C184.561 396.933 184.254 397.62 183.788 398.22C183.321 398.82 182.714 399.293 181.968 399.64C181.221 399.973 180.388 400.14 179.468 400.14C178.401 400.14 177.454 399.913 176.628 399.46C175.814 399.007 175.174 398.353 174.708 397.5C174.241 396.647 174.008 395.64 174.008 394.48C174.008 393.333 174.241 392.333 174.708 391.48C175.174 390.627 175.814 389.973 176.628 389.52C177.454 389.067 178.401 388.84 179.468 388.84C180.548 388.84 181.488 389.067 182.288 389.52C183.101 389.96 183.721 390.573 184.148 391.36C184.588 392.133 184.808 393 184.808 393.96ZM182.508 393.9C182.534 393.18 182.408 392.58 182.128 392.1C181.861 391.607 181.488 391.247 181.008 391.02C180.541 390.78 180.028 390.66 179.468 390.66C178.574 390.66 177.828 390.933 177.228 391.48C176.628 392.027 176.301 392.833 176.248 393.9H182.508Z" fill="#282828"/>
<path d="M208.833 398.833C208.833 398.483 208.95 398.25 209.183 398.017L215.017 392.183C215.483 391.717 216.183 391.717 216.65 392.183C217.117 392.65 217.117 393.35 216.65 393.817L210.817 399.65C210.35 400.117 209.65 400.117 209.183 399.65C208.95 399.417 208.833 399.183 208.833 398.833Z" fill="black"/>
<path d="M208.833 387.167C208.833 386.817 208.95 386.583 209.183 386.35C209.65 385.883 210.35 385.883 210.817 386.35L216.65 392.183C217.117 392.65 217.117 393.35 216.65 393.817C216.183 394.283 215.483 394.283 215.017 393.817L209.183 387.983C208.95 387.75 208.833 387.517 208.833 387.167Z" fill="black"/>
<path d="M196 393C196 392.3 196.467 391.833 197.167 391.833L215.833 391.833C216.533 391.833 217 392.3 217 393C217 393.7 216.533 394.167 215.833 394.167L197.167 394.167C196.467 394.167 196 393.7 196 393Z" fill="black"/>
<path d="M477 183.999L371 183.999L371 77.999C419.881 81.3729 472.428 131.578 477 183.999Z" fill="#8D8D8D"/>
<path d="M371 216H477V322C428.119 318.626 375.572 268.421 371 216Z" fill="#8D8D8D"/>
</g>
<defs>
<clipPath id="clip0_205_140">
<rect width="424" height="474" rx="20" fill="white"/>
</clipPath>
</defs>
</svg>
