<svg width="366" height="63" viewBox="0 0 366 63" fill="none" xmlns="http://www.w3.org/2000/svg">
<path d="M22.8203 61.9472H0V7.28613H22.8203V61.9472Z" fill="#FE6839"/>
<path d="M54.7033 39.623V61.958H32.4316C33.3917 51.9247 42.9292 41.1212 54.6928 39.623H54.7033Z" fill="#FE6839"/>
<path d="M32.4629 7.28613H54.724V29.4945C44.4586 28.7876 33.423 18.269 32.4629 7.28613Z" fill="#FE6839"/>
<path d="M34.4891 40.9096C30.8809 40.8779 28.2117 38.1243 28.2644 34.5055C28.3172 30.9712 31.0181 28.3125 34.5419 28.3125C38.2028 28.3125 40.9459 31.14 40.872 34.8009C40.7982 38.272 38.0129 40.9412 34.4786 40.899L34.4891 40.9096Z" fill="#FE6839"/>
<path d="M124.241 47.55V54.3118H85.7129V14.915H124.159V21.6651H93.8247V32.1482H118.641V37.196H93.8247V47.55H124.241Z" fill="#F9F9F9"/>
<path d="M138.599 41.0117C139.081 45.3083 144.187 48.2665 150.714 48.3135C156.725 48.3487 159.695 46.2591 159.695 42.9135C159.695 39.2391 155.551 38.3352 147.345 37.1965C138.118 35.6939 130.84 33.1582 130.84 25.786C130.84 18.4138 136.956 14.0938 148.507 14.0938C160.059 14.0938 166.175 19.2942 166.069 27.6877H158.134C157.875 22.9451 153.778 20.9142 148.155 20.9142C142.532 20.9142 139.034 22.3464 139.034 25.9503C139.034 29.8947 143.037 30.5873 151.912 32.1017C160.775 33.4517 167.701 35.6 167.701 43.1717C167.701 50.7435 162.336 55.1105 150.48 55.1105C136.029 55.1105 129.854 46.13 130.394 40.9882H138.611L138.599 41.0117Z" fill="#F9F9F9"/>
<path d="M206.473 54.3118L182.936 33.6625V54.3118H174.824V14.915H182.936V33.5686L203.339 14.915H215.395L193.865 33.4395L218.177 54.3118H206.473Z" fill="#F9F9F9"/>
<path d="M217.719 34.6138C217.719 21.8064 226.875 14.1172 242.629 14.1172C258.383 14.1172 267.54 21.8064 267.54 34.6138C267.54 47.4213 258.383 55.1105 242.629 55.1105C226.875 55.1105 217.719 47.4213 217.719 34.6138ZM259.052 34.6138C259.052 25.6216 251.704 21.2429 242.629 21.2429C233.555 21.2429 226.018 25.6216 226.018 34.6138C226.018 43.606 233.567 48.0787 242.629 48.0787C251.692 48.0787 259.052 43.7352 259.052 34.6138Z" fill="#F9F9F9"/>
<path d="M273.998 34.6138C273.998 21.8064 283.155 14.1172 298.909 14.1172C314.663 14.1172 323.819 21.8064 323.819 34.6138C323.819 47.4213 314.663 55.1105 298.909 55.1105C283.155 55.1105 273.998 47.4213 273.998 34.6138ZM315.332 34.6138C315.332 25.6216 307.983 21.2429 298.909 21.2429C289.834 21.2429 282.298 25.6216 282.298 34.6138C282.298 43.606 289.846 48.0787 298.909 48.0787C307.971 48.0787 315.332 43.7352 315.332 34.6138Z" fill="#F9F9F9"/>
<path d="M365.999 47.5735V54.3353H336.663V54.3118H331.721V14.915H339.832V47.5852H365.999V47.5735Z" fill="#F9F9F9"/>
</svg>
